<svg xmlns="http://www.w3.org/2000/svg" viewBox="0 0 36 45" x="0px" y="0px"><title>Монтажная область 56</title><g data-name="Слой 4"><path d="M27,7H22.9a5.00127,5.00127,0,0,1-9.8,0H9a3.00879,3.00879,0,0,0-3,3V30a3.00883,3.00883,0,0,0,3,3H27a3.00883,3.00883,0,0,0,3-3V10A3.00879,3.00879,0,0,0,27,7ZM25,29H11a1,1,0,0,1,0-2H25a1,1,0,0,1,0,2Zm0-6H11a1,1,0,0,1,0-2H25a1,1,0,0,1,0,2Zm0-6H11a1,1,0,0,1,0-2H25a1,1,0,0,1,0,2Z"/><circle cx="18" cy="6" r="3"/></g><text x="0" y="51" fill="#000000" font-size="5px" font-weight="bold" font-family="'Helvetica Neue', Helvetica, Arial-Unicode, Arial, Sans-serif">Created by Chintuza</text><text x="0" y="56" fill="#000000" font-size="5px" font-weight="bold" font-family="'Helvetica Neue', Helvetica, Arial-Unicode, Arial, Sans-serif">from the Noun Project</text></svg>