<svg xmlns="http://www.w3.org/2000/svg" xmlns:xlink="http://www.w3.org/1999/xlink" version="1.1" x="0px" y="0px" viewBox="0 0 32 40" style="enable-background:new 0 0 32 32;" xml:space="preserve"><style type="text/css">
	.st0{display:none;}
</style><g><path d="M22,6.9h-0.5V6c0-0.6-0.4-1-1-1H7.2c-0.6,0-1,0.4-1,1v20c0,0.6,0.4,1,1,1h13.3h1.3c2.2,0,4.1-1.8,4.1-4.1V10.7   C25.8,8.6,24.1,6.9,22,6.9z M15.3,22H10c-0.6,0-1-0.4-1-1s0.4-1,1-1h5.3c0.6,0,1,0.4,1,1S15.9,22,15.3,22z M15.3,17H10   c-0.6,0-1-0.4-1-1s0.4-1,1-1h5.3c0.6,0,1,0.4,1,1S15.9,17,15.3,17z M15.3,12H10c-0.6,0-1-0.4-1-1s0.4-1,1-1h5.3c0.6,0,1,0.4,1,1   S15.9,12,15.3,12z"/></g><text x="0" y="47" fill="#000000" font-size="5px" font-weight="bold" font-family="'Helvetica Neue', Helvetica, Arial-Unicode, Arial, Sans-serif">Created by jafar</text><text x="0" y="52" fill="#000000" font-size="5px" font-weight="bold" font-family="'Helvetica Neue', Helvetica, Arial-Unicode, Arial, Sans-serif">from the Noun Project</text></svg>