<svg xmlns="http://www.w3.org/2000/svg" xmlns:xlink="http://www.w3.org/1999/xlink" version="1.1" x="0px" y="0px" viewBox="0 0 96 120" style="enable-background:new 0 0 96 96;" xml:space="preserve"><style type="text/css">
	.st0{fill-rule:evenodd;clip-rule:evenodd;}
</style><path class="st0" d="M52.873,16.403c0-0.785,0.637-1.421,1.422-1.421h10.397c0.785,0,1.422,0.636,1.422,1.421  c0,0.785-0.637,1.422-1.422,1.422H54.295C53.509,17.825,52.873,17.188,52.873,16.403L52.873,16.403z M52.873,10.938  c0-0.786,0.637-1.423,1.422-1.423h10.397c0.785,0,1.422,0.637,1.422,1.423c0,0.785-0.637,1.422-1.422,1.422H54.295  C53.509,12.36,52.873,11.723,52.873,10.938L52.873,10.938z M50.701,7.844v11.652c0,0.701,0.57,1.272,1.272,1.272h15.04  c0.702,0,1.272-0.571,1.272-1.272V7.844c0-0.701-0.571-1.272-1.272-1.272h-15.04C51.272,6.573,50.701,7.143,50.701,7.844  L50.701,7.844z M51.973,23.612h15.04c2.27,0,4.116-1.846,4.116-4.116V7.844c0-2.27-1.846-4.116-4.116-4.116h-15.04  c-2.27,0-4.116,1.846-4.116,4.116v11.652C47.857,21.766,49.703,23.612,51.973,23.612L51.973,23.612z M88.485,51.345  c0,0.785-0.636,1.422-1.422,1.422H76.665c-0.785,0-1.422-0.637-1.422-1.422c0-0.785,0.637-1.422,1.422-1.422h10.398  C87.848,49.923,88.485,50.56,88.485,51.345L88.485,51.345z M88.485,56.81c0,0.785-0.636,1.422-1.422,1.422H76.665  c-0.785,0-1.422-0.636-1.422-1.422c0-0.785,0.637-1.422,1.422-1.422h10.398C87.848,55.388,88.485,56.024,88.485,56.81L88.485,56.81z   M90.656,59.903V48.251c0-0.702-0.57-1.272-1.272-1.272H74.344c-0.701,0-1.272,0.57-1.272,1.272v11.651  c0,0.702,0.571,1.273,1.272,1.273h15.041C90.086,61.175,90.656,60.605,90.656,59.903L90.656,59.903z M89.384,44.136H74.344  c-2.269,0-4.116,1.846-4.116,4.116v11.651c0,2.269,1.846,4.117,4.116,4.117h15.041c2.27,0,4.116-1.847,4.116-4.117V48.251  C93.5,45.982,91.654,44.136,89.384,44.136L89.384,44.136z M75.409,83.906l-5.092,5.247c-0.344,0.355-0.935,0.364-1.29,0.019  L54.926,75.49c-0.173-0.169-0.27-0.396-0.274-0.641c-0.003-0.245,0.087-0.477,0.255-0.649l5.091-5.247  c0.168-0.174,0.395-0.271,0.641-0.276c0.005,0,0.01,0,0.014,0c0.24,0,0.465,0.09,0.635,0.256l14.101,13.683  C75.744,82.96,75.753,83.552,75.409,83.906L75.409,83.906z M50.802,62.59c-0.755,0.949-1.571,1.849-2.446,2.691l5.79,5.618  l2.53-2.608L50.802,62.59L50.802,62.59z M28.29,51.977c0,2.068-1.682,3.749-3.75,3.749s-3.75-1.681-3.75-3.749  c0-2.068,1.682-3.75,3.75-3.75S28.29,49.908,28.29,51.977L28.29,51.977z M43.072,39.586c-2.068,0-3.75-1.683-3.75-3.75  c0-2.067,1.682-3.75,3.75-3.75c2.068,0,3.75,1.683,3.75,3.75C46.821,37.903,45.139,39.586,43.072,39.586L43.072,39.586z   M46.615,45.727c0-1.377-0.167-2.731-0.489-4.05c-0.914,0.48-1.952,0.753-3.054,0.753c-1.467,0-2.823-0.482-3.919-1.294  l-8.825,7.686c0.514,0.937,0.806,2.013,0.806,3.156c0,3.635-2.958,6.593-6.594,6.593s-6.594-2.958-6.594-6.593  c0-3.636,2.958-6.594,6.594-6.594c1.467,0,2.823,0.482,3.919,1.295l8.824-7.686c-0.513-0.938-0.806-2.013-0.806-3.156  c0-1.819,0.742-3.469,1.938-4.664c-2.648-1.614-5.66-2.461-8.816-2.461c-9.383,0-17.016,7.634-17.016,17.016  c0,9.383,7.633,17.016,17.016,17.016C38.982,62.743,46.615,55.111,46.615,45.727L46.615,45.727z M5.344,45.727  c0-13.374,10.881-24.255,24.256-24.255c12.831,0,23.237,9.742,24.184,22.389l-5.032-4.683c0.579-0.981,0.914-2.122,0.914-3.343  c0-3.636-2.958-6.594-6.594-6.594c-0.684,0-1.344,0.105-1.964,0.299c-3.371-2.406-7.333-3.674-11.508-3.674  c-10.951,0-19.86,8.91-19.86,19.86c0,10.951,8.909,19.859,19.86,19.859c10.951,0,19.86-8.908,19.86-19.859  c0-0.71-0.042-1.415-0.116-2.113l2.753,2.561c-0.579,0.981-0.914,2.124-0.914,3.343c0,1.519,0.517,2.916,1.382,4.032  c-3.345,9.862-12.477,16.434-22.965,16.434C16.225,69.984,5.344,59.103,5.344,45.727L5.344,45.727z M61.527,49.517  c0,2.069-1.682,3.75-3.75,3.75c-2.068,0-3.75-1.682-3.75-3.75c0-2.067,1.682-3.749,3.75-3.749  C59.844,45.768,61.527,47.45,61.527,49.517L61.527,49.517z M80.134,21.888c2.068,0,3.75,1.683,3.75,3.75  c0,2.068-1.682,3.75-3.75,3.75s-3.75-1.683-3.75-3.75C76.385,23.571,78.067,21.888,80.134,21.888L80.134,21.888z M63.269,66.893  L77.37,80.575c1.486,1.443,1.522,3.825,0.08,5.311l-5.091,5.247c-0.735,0.76-1.715,1.139-2.696,1.139  c-0.943,0-1.886-0.351-2.615-1.059L52.946,77.53c-0.718-0.696-1.122-1.635-1.137-2.639c-0.01-0.659,0.151-1.292,0.457-1.854  l-6.068-5.888c-0.107,0.081-0.214,0.165-0.322,0.247c-4.723,3.552-10.35,5.431-16.276,5.431c-14.943,0-27.099-12.157-27.099-27.1  c0-14.943,12.157-27.099,27.099-27.099c7.104,0,13.819,2.729,18.906,7.686c4.616,4.496,7.436,10.377,8.06,16.724  c0.393-0.073,0.797-0.113,1.21-0.113c1.227,0,2.376,0.338,3.361,0.924l13.561-14.484c-0.729-1.061-1.157-2.344-1.157-3.726  c0-3.636,2.958-6.594,6.594-6.594c3.636,0,6.594,2.958,6.594,6.594c0,3.635-2.958,6.593-6.594,6.593  c-1.227,0-2.376-0.337-3.361-0.924L63.212,45.792c0.73,1.061,1.158,2.344,1.158,3.726c0,3.636-2.958,6.594-6.594,6.594  c-1.031,0-2.008-0.238-2.878-0.663c-0.646,1.674-1.461,3.283-2.427,4.799l6.286,6.1c0.552-0.324,1.18-0.503,1.839-0.513  C61.6,65.821,62.551,66.194,63.269,66.893z"/></svg>