<svg xmlns="http://www.w3.org/2000/svg" xmlns:xlink="http://www.w3.org/1999/xlink" version="1.1" x="0px" y="0px" fill="#1B1E24"
 viewBox="0 0 102 125" style="enable-background:new 0 0 102 100;" xml:space="preserve"><g><path d="M32.8,19.9c-5.7,0-10.3,4.6-10.3,10.3c0,0.3,0,0.7,0.1,1c-0.7-0.1-1.4-0.1-2,0c-2.1,0.4-3.8,2.2-4.6,4.6   c-0.8,2.4-0.7,5,0.4,7.1c-2.6,0.9-4.5,3-5.6,5.9c-1.8,5.2,0,9.9,5.2,13.4c-1.5,2.6-1.6,5.7-0.3,8.2c1,1.9,2.6,3.2,4.5,3.7   c2,0.5,4.1,0.2,6-1c0.8,1.7,2.2,4.1,3.4,5.6c0,0,0,0,0,0c1.4,1.8,3.6,2.9,5.9,2.9c3.7,0,6.8-2.6,7.4-6.2c0,0,0,0,0,0c0,0,0,0,0,0   c0,0,0,0,0,0c0,0,0,0,0,0c0.1-0.4,0.1-0.8,0.1-1.2V30.6C43,24.7,38.4,19.9,32.8,19.9z M41,33.6c0,2.1-3,3.9-6.4,3.9   c-2.2,0-4.3-0.8-5.4-2c-0.4-0.4-1-0.5-1.4-0.1c-0.4,0.4-0.5,1-0.1,1.4c0.9,1.1,2.3,1.9,3.9,2.3c-0.6,1-1.3,2.8-1,4.8   c0.3,2,1.4,3.8,3.4,5.3c0.2,0.1,0.4,0.2,0.6,0.2c0.3,0,0.6-0.1,0.8-0.4c0.3-0.4,0.2-1.1-0.2-1.4c-1.6-1.2-2.4-2.5-2.6-4   c-0.3-2.2,1-4,1.2-4.2c0.3,0,0.6,0,0.9,0c2.5,0,4.8-0.8,6.4-2.1V56c-2.9,0.1-9.9-0.1-11.6-5c-0.2-0.5-0.7-0.8-1.3-0.6   c-0.5,0.2-0.8,0.7-0.6,1.3c0.4,1.1,1,2,1.6,2.8c-1.7,0.8-5.4,3-7.2,8.8c-0.2,0.5,0.1,1.1,0.7,1.3c0.1,0,0.2,0,0.3,0   c0.4,0,0.8-0.3,1-0.7c2-6.4,6.6-7.8,6.8-7.8c0.1,0,0.2-0.1,0.2-0.1c2.8,1.8,6.4,2.2,8.9,2.2c0.4,0,0.8,0,1.2,0v16.2   c0,0.3,0,0.6-0.1,0.9c0,0,0,0,0,0c0,0,0,0,0,0c-0.4,2.6-2.8,4.6-5.4,4.6c-1.5,0-2.8-0.6-3.9-1.6c0.1-0.1,0.2-0.2,0.3-0.4   c0.7-1.9,3.2-7.4,6-7.1c0.6,0.1,1-0.3,1.1-0.9s-0.3-1-0.9-1.1c-4.2-0.4-7,5.6-7.8,7.8c-1-1.5-2-3.3-2.5-4.5   c0.9-0.9,2.6-3.1,3.6-7.2c0.1-0.5-0.2-1.1-0.7-1.2c-0.5-0.1-1.1,0.2-1.2,0.7c-1.2,4.9-3.4,6.6-3.4,6.6c0,0,0,0,0,0c0,0,0,0,0,0   c-0.2,0.2-0.5,0.4-0.7,0.6c-1.4,0.9-3,1.2-4.5,0.8c-1.4-0.4-2.6-1.3-3.3-2.7c-1.1-2.1-0.8-5,0.7-7c0.3-0.4,0.2-1.1-0.2-1.4   C17.8,61,17.7,61,17.7,61c-5-3-6.7-6.8-5.1-11.4c0.9-2.4,2.5-4.2,4.7-4.8c0.5,0.8,1.6,2,3.2,2.7c0.1,0.1,0.3,0.1,0.4,0.1   c0.4,0,0.8-0.2,0.9-0.6c0.2-0.5,0-1.1-0.5-1.3c-1.7-0.7-2.6-2.4-2.6-2.4c0,0,0,0,0-0.1c0,0,0-0.1,0-0.1c-1-1.4-1.7-3.8-0.8-6.5   c0.6-1.8,1.8-3,3.1-3.3c0.8-0.2,1.7,0,2.4,0.5c0,0,0.1,0,0.1,0c0.1,0,0.2,0.1,0.2,0.1c0,0,0.1,0,0.1,0c0,0,0.1,0,0.1,0   c0.1,0,0.1,0,0.2,0c0,0,0.1,0,0.1,0c0,0,0,0,0,0c0.1,0,0.1,0,0.1-0.1c0.1,0,0.1-0.1,0.2-0.1c0.1,0,0.1-0.1,0.1-0.2   c0,0,0.1-0.1,0.1-0.1c0,0,0,0,0,0c0-0.1,0.1-0.1,0.1-0.2c0-0.1,0-0.1,0.1-0.2c0-0.1,0-0.1,0-0.2c0-0.1,0-0.1,0-0.2c0,0,0,0,0,0   c-0.2-0.8-0.3-1.5-0.3-2.3c0-4.6,3.7-8.3,8.3-8.3c4.4,0,8.1,4,8.1,8.7V33.6z"/><path fill="#FFD681" d="M53.1,39.5h3.4c0.5,0,1-0.4,1-1s-0.5-1-1-1H53H53h-0.2h-0.8c0,0-0.1,0-0.1,0c-0.5,0.1-0.9,0.5-0.9,1c0,0.6,0.5,1,1,1h0.9   c0,0,0,0,0,0C52.9,39.5,53,39.5,53.1,39.5z"/><path  d="M71.3,62.8h-1.9c-0.1,0-0.3,0-0.5,0c0.4,0.6,0.7,1.3,0.9,2c0.3,1.1,0.3,2.2,0.1,3.2c-0.1,0.5-0.3,1-0.5,1.5   c-0.1,0.1-0.1,0.3-0.2,0.4c-0.7,1.2-1.8,2-3.1,2.3c-1.5,0.4-3.1,0.1-4.4-0.8c-0.3-0.2-0.5-0.4-0.8-0.6c0,0,0,0-0.1,0c0,0,0,0,0,0   c-0.2-0.1-2.2-1.8-3.4-6.6c-0.1-0.5-0.7-0.9-1.2-0.7c-0.5,0.1-0.9,0.7-0.7,1.2c1,4.1,2.7,6.3,3.6,7.2c0,0,0,0,0,0   c-0.5,1.2-1.5,3-2.5,4.5c0,0,0,0,0,0c-0.9-2.1-3.7-8.2-7.8-7.8c-0.5,0.1-0.9,0.6-0.9,1.1s0.6,0.9,1.1,0.9c2.7-0.3,5.3,5.2,6,7.1   c0.1,0.2,0.2,0.3,0.3,0.4c-1,1-2.4,1.6-3.9,1.6c-2.7,0-5-2-5.4-4.6c0,0,0,0,0,0c0,0,0,0,0,0c0-0.3-0.1-0.6-0.1-0.9c0,0,0,0,0,0V58   c0.3,0,0.8,0,1.2,0c2.5,0,6.2-0.4,8.9-2.2c0.3-0.2,0.5-0.3,0.7-0.5c-0.1-0.4-0.3-0.9-0.4-1.3h0c-0.1-0.3-0.2-0.6-0.2-0.8   C53.5,56,48.3,56.1,46,56V37.4v-3.8v-3.1c0-4.7,3.7-8.7,8.1-8.7c1.4,0,2.6,0.3,3.8,0.9c0.5-0.5,1.1-0.9,1.7-1.3   c-1.6-1-3.5-1.6-5.5-1.6c-5.6,0-10.1,4.8-10.1,10.7v26.3V57v17.2c0,0,0,0,0,0c0,0.4,0,0.8,0.1,1.2c0,0,0,0,0,0c0,0,0,0,0,0v0   c0,0,0,0,0,0c0.6,3.6,3.7,6.2,7.4,6.2c2.3,0,4.5-1,5.9-2.9c0,0,0,0,0,0c0,0,0,0,0,0c1.2-1.5,2.6-3.9,3.4-5.6c1.9,1.2,4,1.5,6,1   c2-0.5,3.6-1.8,4.5-3.7c0.1-0.1,0.1-0.2,0.2-0.3c0.3-0.6,0.5-1.3,0.6-2c0.2-1.1,0.2-2.2-0.1-3.3C71.8,64.1,71.6,63.4,71.3,62.8z"/><path fill="#FFD681" d="M80.1,31.4c-0.9-1.1-2.1-2.1-3.5-2.7c-3.7-1.7-7.7-1.5-10.9,0.6c-0.5,0.3-0.9,0.6-1.3,1c-0.4,0.4-0.8,0.8-1.2,1.2l0,0   c-0.2,0.3-0.4,0.5-0.6,0.8s-0.4,0.5-0.5,0.8l0,0v0c-0.9,1.6-1.4,3.4-1.4,5.3c0,1.2,0.2,2.4,0.6,3.6c0.2,0.5,0.4,1.1,0.7,1.6   c0.1,0.1,0.2,0.3,0.3,0.4c0.3,0.6,0.7,1.1,1.1,1.6c0.2,0.3,0.5,0.5,0.7,0.7c0.3,0.2,0.5,0.4,0.6,0.6c0.1,0.1,0.2,0.3,0.3,0.5   c0.2,0.4,0.4,1.4,0.6,2.3c0.2,1,0.5,2,0.7,2.6c0.4,0.9,0.8,1.5,1.4,1.9v1.8c0,1.8,1.2,3.4,2.9,3.9c0.4,0.1,0.8,0.2,1.1,0.2   c1,0,2-0.4,2.7-1c0,0,0,0,0,0c0.5-0.4,0.9-1,1.1-1.6c0,0,0,0,0-0.1c0-0.1,0.1-0.1,0.1-0.2c0.1-0.4,0.2-0.7,0.2-1.1V54   c0.4-0.3,0.7-0.8,0.8-1.2c0.3-0.7,0.5-1.7,0.8-2.8c0.2-1,0.5-2,0.7-2.5c0.1-0.2,0.1-0.3,0.2-0.4c0.1-0.1,0.1-0.2,0.2-0.3   c0.9-0.9,1.6-1.8,2.2-2.7c0.4-0.7,0.7-1.3,1-2c0.8-2.1,0.8-4.2,0.2-6.6C81.7,33.9,81,32.6,80.1,31.4z M73.9,56.1   c0,0.2,0,0.4-0.1,0.6c-0.1,0.5-0.4,0.9-0.8,1.1c-0.3,0.2-0.8,0.4-1.2,0.4c-1.1,0-2.1-0.9-2.1-2.1v-1.3h4.1V56.1z M78.4,44   c-0.3,0.4-0.7,0.9-1.2,1.3c-0.2,0.2-0.3,0.3-0.4,0.5c-0.2,0.3-0.3,0.6-0.4,0.8c-0.3,0.7-0.5,1.7-0.8,2.8c-0.2,1-0.5,2-0.7,2.6   c0,0,0,0,0,0c-0.1,0.4-0.6,0.8-1,0.8h-4.4c-0.3,0-0.6-0.1-1-0.7c-0.1-0.1-0.1-0.3-0.2-0.4c-0.2-0.5-0.4-1.4-0.6-2.3   c-0.2-1-0.5-2-0.7-2.7c-0.1-0.3-0.2-0.6-0.5-0.9c-0.3-0.4-0.7-0.7-1-1c-0.2-0.2-0.4-0.3-0.5-0.5c-0.1-0.1-0.1-0.2-0.2-0.3   c-0.3-0.4-0.6-0.9-0.9-1.4c-0.1-0.2-0.2-0.4-0.3-0.6c-0.5-1.1-0.8-2.3-0.8-3.6c0-2,0.7-3.9,1.8-5.4c0,0,0,0,0-0.1c0,0,0,0,0-0.1h0   c0.6-0.8,1.3-1.4,2.1-1.9c1.5-0.9,3.1-1.4,4.8-1.4c1.4,0,2.8,0.3,4.2,1c2.1,1,3.8,3,4.4,5.3c0.6,2.3,0.4,4.3-0.5,6.2   C79.4,42.7,79,43.3,78.4,44z"/><path fill="#FFD681" d="M71.8,24.9c0.6,0,1-0.4,1-1v-4.3v-0.3c0-0.6-0.4-1-1-1c-0.5,0-1,0.4-1,1v0.3v4.3C70.8,24.5,71.3,24.9,71.8,24.9z"/><path fill="#FFD681" d="M61.2,22.7L61.2,22.7l2.1,3.6c0.1,0.2,0.3,0.4,0.5,0.4c0.1,0,0.2,0.1,0.3,0.1c0.2,0,0.3,0,0.5-0.1c0.5-0.3,0.6-0.9,0.4-1.4   l-2.1-3.6l-0.1-0.2c-0.3-0.5-0.9-0.6-1.4-0.4c-0.5,0.3-0.6,0.9-0.4,1.4L61.2,22.7z"/><path fill="#FFD681" d="M59.2,30.4l-3.5-2l-0.3-0.2c-0.5-0.3-1.1-0.1-1.4,0.4c-0.3,0.5-0.1,1.1,0.4,1.4l0.3,0.2l3.5,2c0.2,0.1,0.3,0.1,0.5,0.1   c0.3,0,0.7-0.2,0.9-0.5C59.8,31.3,59.7,30.7,59.2,30.4z"/><path fill="#FFD681" d="M54.9,49.3c0.2,0,0.3,0,0.5-0.1l0.5-0.3l1.9-1.1l1.4-0.8c0.5-0.3,0.6-0.9,0.4-1.4c-0.3-0.5-0.9-0.7-1.4-0.4l-0.4,0.2   l-2.9,1.7l-0.5,0.3c-0.5,0.3-0.6,0.9-0.4,1.4C54.2,49.2,54.5,49.3,54.9,49.3z"/><path fill="#FFD681" d="M78.7,26.7c0.2,0.1,0.3,0.1,0.5,0.1c0.3,0,0.7-0.2,0.9-0.5l2.2-3.7l0.1-0.1c0.3-0.5,0.1-1.1-0.3-1.4   c-0.5-0.3-1.1-0.1-1.4,0.4l-0.1,0.1l-2.2,3.7C78,25.8,78.2,26.4,78.7,26.7z"/><path fill="#FFD681"  d="M84.6,32.4c0.2,0,0.3,0,0.5-0.1l3.6-2l0.2-0.1c0.5-0.3,0.7-0.9,0.4-1.4c-0.3-0.5-0.9-0.7-1.4-0.4l-0.2,0.1l-3.7,2.1   c-0.5,0.3-0.7,0.9-0.4,1.4C83.9,32.3,84.3,32.4,84.6,32.4z"/><path fill="#FFD681" d="M91,37.5h-0.5h-4c-0.6,0-1,0.4-1,1s0.4,1,1,1h4H91c0.5,0,1-0.4,1-1S91.5,37.5,91,37.5z"/><path fill="#FFD681" d="M88.8,47.5l-0.6-0.3l-2.4-1.4L85,45.3c-0.4-0.2-0.8-0.2-1.1,0.1c-0.1,0.1-0.2,0.2-0.3,0.3c-0.3,0.4-0.1,1,0.3,1.3   c0,0,0.1,0.1,0.1,0.1l1.9,1.1l1.3,0.8l0.6,0.4c0.2,0.1,0.3,0.1,0.5,0.1c0.3,0,0.7-0.2,0.9-0.5C89.5,48.4,89.3,47.8,88.8,47.5z"/></g></svg>