<svg xmlns="http://www.w3.org/2000/svg" xmlns:xlink="http://www.w3.org/1999/xlink" version="1.1" x="0px" y="0px" viewBox="0 0 512 640" style="enable-background:new 0 0 512 512;" xml:space="preserve"><g><path d="M462.9,311.9c-28.4-12.6-55.4-28.2-80.4-46.6V84.1c0-14.4-11.6-26-26-26h-29V37.9c0-3.3-2.7-6-6-6s-6,2.7-6,6v20.3h-63.3   V37.9c0-3.3-2.7-6-6-6s-6,2.7-6,6v20.3h-63.3V37.9c0-3.3-2.7-6-6-6c-3.3,0-6,2.7-6,6v20.3h-63.3V37.9c0-3.3-2.7-6-6-6s-6,2.7-6,6   v20.3H66.4c-14.4,0-26,11.6-26,26v340c0,14.4,11.6,26,26,26h253c2.6,2.2,5.3,4.4,8.2,6.4c13.9,10.1,29.3,18,45.6,23.3   c0.5,0.2,1.1,0.2,1.7,0.2c0.6,0,1.1-0.1,1.6-0.2c16.8-5.3,32.7-13.1,47.2-23.3c31.3-22.1,47.9-51.6,47.9-85.1v-46.3   C471.6,319.5,468.2,314.2,462.9,311.9z M321.4,92.3L321.4,92.3c7.7,0,14,6.3,14,14s-6.3,14-14,14s-14-6.3-14-14   C307.4,98.5,313.7,92.3,321.4,92.3z M246.1,92.3c7.7,0,14,6.3,14,14s-6.3,14-14,14s-14-6.3-14-14C232.1,98.5,238.4,92.3,246.1,92.3   z M170.8,92.3c7.7,0,14,6.3,14,14s-6.3,14-14,14c-7.7,0-14-6.3-14-14C156.8,98.5,163.1,92.3,170.8,92.3z M95.6,92.3   c7.7,0,14,6.3,14,14s-6.3,14-14,14s-14-6.3-14-14C81.6,98.5,87.8,92.3,95.6,92.3z M66.4,438.1c-7.7,0-14-6.3-14-14v-340   c0-7.7,6.3-14,14-14h23.1V81c-14,3.3-22.6,17.3-19.3,31.3s17.3,22.6,31.3,19.3c14-3.3,22.6-17.3,19.3-31.3   c-2.3-9.6-9.7-17-19.3-19.3V70.1h63.3V81c-14,3.3-22.6,17.3-19.3,31.3c3.3,14,17.3,22.6,31.3,19.3c14-3.3,22.6-17.3,19.3-31.3   c-2.3-9.6-9.7-17-19.3-19.3V70.1h63.3V81c-14,3.3-22.6,17.3-19.3,31.3s17.3,22.6,31.3,19.3c14-3.3,22.6-17.3,19.3-31.3   c-2.3-9.6-9.7-17-19.3-19.3V70.1h63.3V81c-14,3.3-22.6,17.3-19.3,31.3c3.3,14,17.3,22.6,31.3,19.3c14-3.3,22.6-17.3,19.3-31.3   c-2.3-9.6-9.7-17-19.3-19.3V70.1h29c7.7,0,14,6.3,14,14v181.2c-25,18.4-52,34-80.4,46.6c-5.3,2.4-8.7,7.6-8.7,13.4v46.2   c0,24.9,8.8,47.5,25.8,66.6H66.4z M459.6,371.6c0,29.8-14.3,55-42.5,75.1c-12.9,9.1-27.1,16.2-42.1,21.2   c-14.5-5-28.2-12.2-40.6-21.2c-27.2-20-41-45.3-41-75.1v-46.3c0-1.1,0.6-2,1.6-2.5c28.8-12.7,56.1-28.5,81.5-47   c25.4,18.5,52.8,34.3,81.5,47c1,0.4,1.6,1.4,1.6,2.5V371.6z"/><path d="M400,349.3L400,349.3l-31.2,31.2l-15.9-15.9c-2.3-2.4-6.1-2.4-8.5-0.1c-2.4,2.3-2.4,6.1-0.1,8.5c0,0,0,0,0.1,0.1l20.2,20.2   c2.3,2.3,6.1,2.3,8.5,0l35.5-35.5c2.3-2.4,2.3-6.2-0.1-8.5C406.1,347,402.4,347,400,349.3z"/><path d="M265.4,368.1h-164c-3.3,0-6,2.7-6,6s2.7,6,6,6h164c3.3,0,6-2.7,6-6S268.8,368.1,265.4,368.1z"/><path d="M101.4,270.2h220c3.3,0,6-2.7,6-6s-2.7-6-6-6h-220c-3.3,0-6,2.7-6,6S98.1,270.2,101.4,270.2z"/><path d="M101.4,215.2h220c3.3,0,6-2.7,6-6s-2.7-6-6-6h-220c-3.3,0-6,2.7-6,6S98.1,215.2,101.4,215.2z"/><path d="M265.4,313.1h-164c-3.3,0-6,2.7-6,6s2.7,6,6,6h164c3.3,0,6-2.7,6-6S268.8,313.1,265.4,313.1z"/></g></svg>