<svg xmlns="http://www.w3.org/2000/svg" data-name="Layer 1" viewBox="0 0 64 80" x="0px" y="0px"><path d="M35,57H29a3,3,0,0,1,0-6h6a3,3,0,0,1,0,6Zm-6-4a1,1,0,0,0,0,2h6a1,1,0,0,0,0-2Z"/><path d="M50,48H14a1,1,0,0,1-1-1V42a1,1,0,0,1,1-1H50a1,1,0,0,1,1,1v5A1,1,0,0,1,50,48ZM15,46H49V43H15Z"/><path d="M50,39H14a1,1,0,0,1-1-1V33a1,1,0,0,1,1-1H50a1,1,0,0,1,1,1v5A1,1,0,0,1,50,39ZM15,37H49V34H15Z"/><path d="M36.3945,29a1,1,0,0,1-1-1V25.8027A2.8056,2.8056,0,0,0,32.5918,23H30.1973a2.8057,2.8057,0,0,0-2.8028,2.8027V28a1,1,0,0,1-2,0V25.8027A4.8079,4.8079,0,0,1,30.1973,21h2.3945a4.8079,4.8079,0,0,1,4.8027,4.8027V28A1,1,0,0,1,36.3945,29Z"/><path d="M31.3945,19a4,4,0,1,1,4-4A4.0043,4.0043,0,0,1,31.3945,19Zm0-6a2,2,0,1,0,2,2A2.0023,2.0023,0,0,0,31.3945,13Z"/><path d="M39.3945,29h-16a1,1,0,0,1,0-2h16a1,1,0,0,1,0,2Z"/><path d="M52,61H12a5.0059,5.0059,0,0,1-5-5V11a5.0059,5.0059,0,0,1,5-5H47a1,1,0,0,1,0,2H12a3.0033,3.0033,0,0,0-3,3V56a3.0033,3.0033,0,0,0,3,3H52a3.0033,3.0033,0,0,0,3-3V16a1,1,0,0,1,2,0V56A5.0059,5.0059,0,0,1,52,61Z"/><path d="M61,8H51a1,1,0,0,1,0-2H61a1,1,0,0,1,0,2Z"/><path d="M56,13a1,1,0,0,1-1-1V2a1,1,0,0,1,2,0V12A1,1,0,0,1,56,13Z"/><text x="0" y="79" fill="#000000" font-size="5px" font-weight="bold" font-family="'Helvetica Neue', Helvetica, Arial-Unicode, Arial, Sans-serif">Created by P Thanga Vignesh</text><text x="0" y="84" fill="#000000" font-size="5px" font-weight="bold" font-family="'Helvetica Neue', Helvetica, Arial-Unicode, Arial, Sans-serif">from the Noun Project</text></svg>